<mxfile host="app.diagrams.net" modified="2021-12-15T08:01:35.836Z" agent="5.0 (Macintosh; Intel Mac OS X 10_15_7) AppleWebKit/537.36 (KHTML, like Gecko) Chrome/96.0.4664.93 Safari/537.36" etag="nRgWrxz-R3WRTr-awkvp" version="15.6.8" type="github">
  <diagram id="ntlUTMUZ2YoYlUxr4UDl" name="Page-1">
    <mxGraphModel dx="777" dy="560" grid="1" gridSize="10" guides="1" tooltips="1" connect="1" arrows="1" fold="1" page="1" pageScale="1" pageWidth="827" pageHeight="1169" math="0" shadow="0">
      <root>
        <mxCell id="0" />
        <mxCell id="1" parent="0" />
        <mxCell id="ssuA-F6Ih-L6NTRyvzLN-1" value="&lt;h1&gt;Heading&lt;/h1&gt;&lt;p&gt;Lorem ipsum dolor sit amet, consectetur adipisicing elit, sed do eiusmod tempor incididunt ut labore et dolore magna aliqua.&lt;/p&gt;" style="text;html=1;strokeColor=none;fillColor=none;spacing=5;spacingTop=-20;whiteSpace=wrap;overflow=hidden;rounded=0;fontColor=default;" parent="1" vertex="1">
          <mxGeometry x="190" y="100" width="190" height="120" as="geometry" />
        </mxCell>
        <mxCell id="sULu07IeZ9J2AATGtU-D-3" value="" style="edgeStyle=orthogonalEdgeStyle;rounded=0;orthogonalLoop=1;jettySize=auto;html=1;startArrow=classic;startFill=1;endArrow=none;endFill=0;" parent="1" source="sULu07IeZ9J2AATGtU-D-1" target="sULu07IeZ9J2AATGtU-D-2" edge="1">
          <mxGeometry relative="1" as="geometry" />
        </mxCell>
        <mxCell id="sULu07IeZ9J2AATGtU-D-5" value="" style="edgeStyle=orthogonalEdgeStyle;rounded=0;orthogonalLoop=1;jettySize=auto;html=1;endArrow=none;endFill=0;startArrow=classic;startFill=1;" parent="1" source="sULu07IeZ9J2AATGtU-D-1" target="sULu07IeZ9J2AATGtU-D-4" edge="1">
          <mxGeometry relative="1" as="geometry" />
        </mxCell>
        <mxCell id="sULu07IeZ9J2AATGtU-D-1" value="企业" style="text;html=1;align=center;verticalAlign=middle;resizable=0;points=[];autosize=1;strokeColor=none;fillColor=none;" parent="1" vertex="1">
          <mxGeometry x="340" y="280" width="40" height="20" as="geometry" />
        </mxCell>
        <mxCell id="sULu07IeZ9J2AATGtU-D-2" value="贸易" style="text;html=1;align=center;verticalAlign=middle;resizable=0;points=[];autosize=1;strokeColor=none;fillColor=none;fontSize=16;" parent="1" vertex="1">
          <mxGeometry x="145" y="330" width="50" height="20" as="geometry" />
        </mxCell>
        <mxCell id="sULu07IeZ9J2AATGtU-D-4" value="劳动力市场" style="text;html=1;align=center;verticalAlign=middle;resizable=0;points=[];autosize=1;strokeColor=none;fillColor=none;fontSize=16;" parent="1" vertex="1">
          <mxGeometry x="490" y="330" width="100" height="20" as="geometry" />
        </mxCell>
        <mxCell id="sULu07IeZ9J2AATGtU-D-6" value="扩展产品和中间投入品市场" style="text;html=1;align=center;verticalAlign=middle;resizable=0;points=[];autosize=1;strokeColor=none;fillColor=none;" parent="1" vertex="1">
          <mxGeometry x="170" y="290" width="160" height="20" as="geometry" />
        </mxCell>
        <mxCell id="LbTDvLvnsWn7GsijZJgf-1" value="投入要素构成企业异质性" style="text;html=1;align=center;verticalAlign=middle;resizable=0;points=[];autosize=1;strokeColor=none;fillColor=none;" vertex="1" parent="1">
          <mxGeometry x="390" y="290" width="150" height="20" as="geometry" />
        </mxCell>
        <mxCell id="LbTDvLvnsWn7GsijZJgf-10" value="" style="endArrow=classic;html=1;rounded=0;exitX=1.025;exitY=0.6;exitDx=0;exitDy=0;exitPerimeter=0;entryX=-0.012;entryY=0.55;entryDx=0;entryDy=0;entryPerimeter=0;" edge="1" parent="1">
          <mxGeometry relative="1" as="geometry">
            <mxPoint x="197.45" y="331" as="sourcePoint" />
            <mxPoint x="489.99999999999994" y="330" as="targetPoint" />
          </mxGeometry>
        </mxCell>
        <mxCell id="LbTDvLvnsWn7GsijZJgf-11" value="影响供给与需求" style="edgeLabel;resizable=0;html=1;align=center;verticalAlign=middle;" connectable="0" vertex="1" parent="LbTDvLvnsWn7GsijZJgf-10">
          <mxGeometry relative="1" as="geometry" />
        </mxCell>
        <mxCell id="LbTDvLvnsWn7GsijZJgf-15" value="" style="endArrow=none;html=1;rounded=0;entryX=-0.01;entryY=0.9;entryDx=0;entryDy=0;entryPerimeter=0;startArrow=classic;startFill=1;endFill=0;" edge="1" parent="1" target="sULu07IeZ9J2AATGtU-D-4">
          <mxGeometry relative="1" as="geometry">
            <mxPoint x="200" y="348" as="sourcePoint" />
            <mxPoint x="490" y="350" as="targetPoint" />
            <Array as="points">
              <mxPoint x="390" y="348" />
            </Array>
          </mxGeometry>
        </mxCell>
        <mxCell id="LbTDvLvnsWn7GsijZJgf-16" value="反馈于比较优势" style="edgeLabel;resizable=0;html=1;align=center;verticalAlign=middle;" connectable="0" vertex="1" parent="LbTDvLvnsWn7GsijZJgf-15">
          <mxGeometry relative="1" as="geometry" />
        </mxCell>
      </root>
    </mxGraphModel>
  </diagram>
</mxfile>
